<svg id="Calque_1" data-name="Calque 1" xmlns="http://www.w3.org/2000/svg" width="375.93" height="175.54" viewBox="0 0 375.93 175.54"><defs><style>.cls-1{fill:#0049f5;}</style></defs><title>logo2</title><path class="cls-1" d="M308,199.22,269.14,322.75a25.79,25.79,0,0,1-24.6,18.05h0a25.79,25.79,0,0,1-24.73-18.47l-31.23-105.5-31.23,105.5a25.79,25.79,0,0,1-24.73,18.47h0A25.79,25.79,0,0,1,108,322.75L69.15,199.22a23.84,23.84,0,0,1,22.74-31h3l38.43,132.65,33-115.37a23.84,23.84,0,0,1,22.92-17.28h0a23.84,23.84,0,0,1,22.92,17.28l33,115.37,38.43-132.65h1.73A23.84,23.84,0,0,1,308,199.22Z" transform="translate(-68.04 -168.23)"/><path class="cls-1" d="M408,325.18h0q-17.61,18.58-42.4,18.59-19.59,0-31.86-10.16t-12.27-26.78q0-21.57,16-33.6t46.24-12q10.91,0,21.82,1v-4.71q0-10.91-6.19-16.24t-19.59-5.33a67.52,67.52,0,0,0-24.43,4.34q-11.28,4.34-24.42,14V225a79.09,79.09,0,0,1,23.8-12.65,89.31,89.31,0,0,1,27.28-4q27.52,0,42,11.78t14.51,34.34V312L444,340.8H427.18A19.59,19.59,0,0,1,408,325.18Zm-37.44-6.45a42.56,42.56,0,0,0,17.85-3.84q8.43-3.84,17.11-12.28V285h-23.8q-14.39,0-21,4.21t-6.57,15.13Q354.21,318.74,370.57,318.73Z" transform="translate(-68.04 -168.23)"/></svg>